<svg
  xmlns="http://www.w3.org/2000/svg"
  style="display: none"
  viewBox="0 0 24 24"
  stroke-linecap="round"
  stroke-linejoin="round"
>
  <defs>
    <symbol id="tel-icon" fill="currentColor" stroke="none" stroke-width="1.5">
      <path
        d="M6.62 10.79c1.44 2.83 3.76 5.14 6.59 6.59l2.2-2.2c.27-.27.67-.36 1.02-.24 1.12.37 2.33.57 3.57.57.55 0 1 .45 1 1V20c0 .55-.45 1-1 1-9.39 0-17-7.61-17-17 0-.55.45-1 1-1h3.5c.55 0 1 .45 1 1 0 1.25.2 2.45.57 3.57.11.35.03.74-.25 1.02l-2.2 2.2z"
      />
    </symbol>

    <symbol id="mail-icon" stroke-width="2" fill="none" stroke="currentColor">
      <rect x="2" y="4" width="20" height="16" rx="2" />
      <polyline points="22,7 12,13 2,7" />
    </symbol>

<symbol id="vk-icon" viewBox="0 0 24 24" fill="currentColor">
<path d="M12.9825 19C5.46596 19 1.17864 13.7447 1 5H4.76515C4.88882 11.4184 7.66459 14.1371 9.86321 14.6977V5H13.4085V10.5355C15.5796 10.2973 17.8607 7.77477 18.6302 5H22.1755C21.8855 6.43908 21.3075 7.80165 20.4776 9.0025C19.6477 10.2033 18.5837 11.2166 17.3523 11.979C18.7269 12.6756 19.941 13.6615 20.9145 14.8717C21.888 16.082 22.5988 17.489 23 19H19.0974C18.7373 17.6876 18.0054 16.5128 16.9934 15.6228C15.9814 14.7328 14.7343 14.1673 13.4085 13.997V19H12.9825Z"/>
</symbol>

    <symbol id="wa-icon" viewBox="0 0 24 24" fill="currentColor">
<path d="M19.7805 4.20833C17.7108 2.14583 14.9512 1 12.0383 1C5.98258 1 1.07665 5.88889 1.07665 11.9236C1.07665 13.8333 1.61324 15.7431 2.5331 17.3472L1 23L6.82578 21.4722C8.43554 22.3125 10.1986 22.7708 12.0383 22.7708C18.0941 22.7708 23 17.8819 23 11.8472C22.9233 9.02083 21.8502 6.27083 19.7805 4.20833ZM17.3275 15.8194C17.0976 16.4306 16.0244 17.0417 15.4878 17.1181C15.0279 17.1944 14.4146 17.1944 13.8014 17.0417C13.4181 16.8889 12.8815 16.7361 12.2683 16.4306C9.50871 15.2847 7.74565 12.5347 7.59234 12.3056C7.43903 12.1528 6.44251 10.8542 6.44251 9.47916C6.44251 8.10416 7.1324 7.49305 7.36237 7.1875C7.59233 6.88194 7.89895 6.88194 8.12892 6.88194C8.28223 6.88194 8.51219 6.88194 8.6655 6.88194C8.81881 6.88194 9.04878 6.80555 9.27874 7.34028C9.50871 7.875 10.0453 9.25 10.1219 9.32639C10.1986 9.47917 10.1986 9.63194 10.1219 9.78472C10.0453 9.9375 9.96864 10.0903 9.81533 10.2431C9.66202 10.3958 9.50871 10.625 9.43205 10.7014C9.27874 10.8542 9.12543 11.0069 9.27874 11.2361C9.43205 11.5417 9.96864 12.3819 10.8118 13.1458C11.885 14.0625 12.7282 14.3681 13.0348 14.5208C13.3415 14.6736 13.4948 14.5972 13.6481 14.4444C13.8014 14.2917 14.338 13.6806 14.4913 13.375C14.6446 13.0694 14.8746 13.1458 15.1045 13.2222C15.3345 13.2986 16.7143 13.9861 16.9442 14.1389C17.2509 14.2917 17.4042 14.3681 17.4808 14.4444C17.5575 14.6736 17.5575 15.2083 17.3275 15.8194Z"/>
    </symbol>

    <symbol id="tg-icon" viewBox="0 0 24 24" fill="currentColor">
<path d="M21 3.60223L17.9946 19.2923C17.9946 19.2923 17.5741 20.3801 16.4189 19.8584L9.48458 14.3526L9.45242 14.3364C10.3891 13.4654 17.6524 6.70266 17.9698 6.39612C18.4613 5.92136 18.1562 5.63873 17.5856 5.99736L6.85679 13.053L2.71764 11.6108C2.71764 11.6108 2.06626 11.3708 2.00359 10.8491C1.9401 10.3265 2.73908 10.0439 2.73908 10.0439L19.6131 3.18895C19.6131 3.18895 21 2.55793 21 3.60223Z"/>
    </symbol>
  </defs>
</svg>
