<svg
  xmlns="http://www.w3.org/2000/svg"
  style="display: none"
  viewBox="0 0 24 24"
  stroke-linecap="round"
  stroke-linejoin="round"
>
  <defs>
    <symbol id="tel-icon" fill="currentColor" stroke="none" stroke-width="1.5">
      <path
        d="M6.62 10.79c1.44 2.83 3.76 5.14 6.59 6.59l2.2-2.2c.27-.27.67-.36 1.02-.24 1.12.37 2.33.57 3.57.57.55 0 1 .45 1 1V20c0 .55-.45 1-1 1-9.39 0-17-7.61-17-17 0-.55.45-1 1-1h3.5c.55 0 1 .45 1 1 0 1.25.2 2.45.57 3.57.11.35.03.74-.25 1.02l-2.2 2.2z"
      />
    </symbol>

    <symbol id="mail-icon" stroke-width="2" fill="none" stroke="currentColor">
      <rect x="2" y="4" width="20" height="16" rx="2" />
      <polyline points="22,7 12,13 2,7" />
    </symbol>

<symbol id="vk-icon" viewBox="0 0 24 24" fill="currentColor">
<path d="M12.9825 19C5.46596 19 1.17864 13.7447 1 5H4.76515C4.88882 11.4184 7.66459 14.1371 9.86321 14.6977V5H13.4085V10.5355C15.5796 10.2973 17.8607 7.77477 18.6302 5H22.1755C21.8855 6.43908 21.3075 7.80165 20.4776 9.0025C19.6477 10.2033 18.5837 11.2166 17.3523 11.979C18.7269 12.6756 19.941 13.6615 20.9145 14.8717C21.888 16.082 22.5988 17.489 23 19H19.0974C18.7373 17.6876 18.0054 16.5128 16.9934 15.6228C15.9814 14.7328 14.7343 14.1673 13.4085 13.997V19H12.9825Z"/>
</symbol>

    <symbol id="wa-icon" viewBox="0 0 24 24" fill="currentColor">
<path d="M20.4878 3.5C18.23 1.25 15.2195 0 12.0418 0C5.43554 0 0.0836224 5.33333 0.0836224 11.9167C0.0836224 14 0.668989 16.0833 1.67247 17.8333L0 24L6.3554 22.3333C8.1115 23.25 10.0348 23.75 12.0418 23.75C18.6481 23.75 24 18.4167 24 11.8333C23.9164 8.75 22.7456 5.75 20.4878 3.5ZM17.8118 16.1667C17.561 16.8333 16.3902 17.5 15.8049 17.5833C15.3031 17.6667 14.6341 17.6667 13.9652 17.5C13.547 17.3333 12.9617 17.1667 12.2927 16.8333C9.28223 15.5833 7.35889 12.5833 7.19164 12.3333C7.02439 12.1667 5.93728 10.75 5.93728 9.25C5.93728 7.75 6.68989 7.08333 6.94077 6.75C7.19164 6.41667 7.52613 6.41667 7.777 6.41667C7.94425 6.41667 8.19512 6.41667 8.36237 6.41667C8.52961 6.41667 8.78049 6.33333 9.03136 6.91667C9.28223 7.5 9.86759 9 9.95122 9.08333C10.0348 9.25 10.0348 9.41667 9.95122 9.58333C9.86759 9.75 9.78397 9.91667 9.61672 10.0833C9.44947 10.25 9.28223 10.5 9.1986 10.5833C9.03136 10.75 8.86411 10.9167 9.03136 11.1667C9.19861 11.5 9.78397 12.4167 10.7038 13.25C11.8746 14.25 12.7944 14.5833 13.1289 14.75C13.4634 14.9167 13.6307 14.8333 13.7979 14.6667C13.9652 14.5 14.5505 13.8333 14.7178 13.5C14.885 13.1667 15.1359 13.25 15.3868 13.3333C15.6376 13.4167 17.1429 14.1667 17.3937 14.3333C17.7282 14.5 17.8955 14.5833 17.9791 14.6667C18.0627 14.9167 18.0627 15.5 17.8118 16.1667Z"/>
    </symbol>

    <symbol id="tg-icon" viewBox="0 0 24 24" fill="currentColor">
<path d="M21 3.60223L17.9946 19.2923C17.9946 19.2923 17.5741 20.3801 16.4189 19.8584L9.48458 14.3526L9.45242 14.3364C10.3891 13.4654 17.6524 6.70266 17.9698 6.39612C18.4613 5.92136 18.1562 5.63873 17.5856 5.99736L6.85679 13.053L2.71764 11.6108C2.71764 11.6108 2.06626 11.3708 2.00359 10.8491C1.9401 10.3265 2.73908 10.0439 2.73908 10.0439L19.6131 3.18895C19.6131 3.18895 21 2.55793 21 3.60223Z"/>
    </symbol>
  </defs>
</svg>
